<svg width="291" height="43" viewBox="0 0 291 43" fill="none" xmlns="http://www.w3.org/2000/svg">
<path d="M28.3125 18.625V33.5625C28.3125 36.0625 28.1771 37.9062 27.9062 39.0938C27.4479 40.9896 26.1562 42.1667 24.0312 42.625C22.8438 42.875 20.5 43 17 43H12.1875C9.47917 43 7.45833 42.9375 6.125 42.8125C3.5 42.5 1.88542 41.4271 1.28125 39.5938C0.947917 38.5312 0.760417 37.25 0.71875 35.75L0.65625 31.5L0.625 28.1562V15.3438C0.625 11.5104 0.770833 8.64583 1.0625 6.75C1.375 4.83333 1.91667 3.42708 2.6875 2.53125C3.79167 1.23958 5.73958 0.53125 8.53125 0.40625C9.46875 0.364583 10.6875 0.34375 12.1875 0.34375H28.3125V10.8438C26.8333 10.1562 24.0625 9.75 20 9.625H15.9688C14.1354 9.64583 13.0312 9.86458 12.6562 10.2812C12.2396 10.7396 12.0417 11.8229 12.0625 13.5312V28.6875C12.0417 30.625 12.1562 31.9479 12.4062 32.6562C12.6562 33.3438 13.5312 33.6979 15.0312 33.7188H16.875V23.4375C16.8542 21.75 16.5521 20.1458 15.9688 18.625H28.3125ZM43.5938 34V43H32.1562V9.0625C32.1354 5.58333 32.7917 3.20833 34.125 1.9375C35.0417 1.1875 36.625 0.71875 38.875 0.53125C40.1667 0.40625 41.7708 0.34375 43.6875 0.34375H48.3438C51.1979 0.34375 53.3333 0.46875 54.75 0.71875C56.1667 0.947917 57.2083 1.35417 57.875 1.9375C59.25 3.20833 59.9167 5.58333 59.875 9.0625V43H48.4375V34H43.5938ZM43.5938 24.5H48.4375V13.2188C48.4375 10.6146 47.625 9.3125 46 9.3125C44.3958 9.3125 43.5938 10.6146 43.5938 13.2188V24.5ZM64 0.34375H81.5C84.0833 0.34375 85.8854 0.40625 86.9062 0.53125C88.9688 0.78125 90.3125 1.83333 90.9375 3.6875C91.4167 5.02083 91.6667 6.64583 91.6875 8.5625V11.3125C91.6875 13.2083 91.6354 14.5521 91.5312 15.3438C91.2188 17.4896 90.3958 19.0521 89.0625 20.0312C88.2917 20.5729 87.0833 20.9375 85.4375 21.125C87.125 21.625 88.3542 22.125 89.125 22.625C90.9375 23.8958 91.7917 26.1042 91.6875 29.25V35.8438C91.7083 38.7604 92.0104 41.1458 92.5938 43H81.125C80.5208 41.1875 80.2292 38.7917 80.25 35.8125V30.125C80.2292 28.6042 79.9062 27.5729 79.2812 27.0312C78.6979 26.5521 77.8958 26.3125 76.875 26.3125H75.4375V43H64V0.34375ZM75.4375 17.0312H77.0625C78.3542 17.0312 79.1875 16.8333 79.5625 16.4375C80.0625 15.9167 80.3125 14.875 80.3125 13.3125C80.3125 11.7917 79.9688 10.7292 79.2812 10.125C78.8646 9.77083 78.125 9.59375 77.0625 9.59375H75.4375V17.0312ZM107.281 34V43H95.8438V9.0625C95.8229 5.58333 96.4792 3.20833 97.8125 1.9375C98.7292 1.1875 100.312 0.71875 102.562 0.53125C103.854 0.40625 105.458 0.34375 107.375 0.34375H112.031C114.885 0.34375 117.021 0.46875 118.438 0.71875C119.854 0.947917 120.896 1.35417 121.562 1.9375C122.938 3.20833 123.604 5.58333 123.562 9.0625V43H112.125V34H107.281ZM107.281 24.5H112.125V13.2188C112.125 10.6146 111.312 9.3125 109.688 9.3125C108.083 9.3125 107.281 10.6146 107.281 13.2188V24.5ZM155.125 18.625V33.5625C155.125 36.0625 154.99 37.9062 154.719 39.0938C154.26 40.9896 152.969 42.1667 150.844 42.625C149.656 42.875 147.312 43 143.812 43H139C136.292 43 134.271 42.9375 132.938 42.8125C130.312 42.5 128.698 41.4271 128.094 39.5938C127.76 38.5312 127.573 37.25 127.531 35.75L127.469 31.5L127.438 28.1562V15.3438C127.438 11.5104 127.583 8.64583 127.875 6.75C128.188 4.83333 128.729 3.42708 129.5 2.53125C130.604 1.23958 132.552 0.53125 135.344 0.40625C136.281 0.364583 137.5 0.34375 139 0.34375H155.125V10.8438C153.646 10.1562 150.875 9.75 146.812 9.625H142.781C140.948 9.64583 139.844 9.86458 139.469 10.2812C139.052 10.7396 138.854 11.8229 138.875 13.5312V28.6875C138.854 30.625 138.969 31.9479 139.219 32.6562C139.469 33.3438 140.344 33.6979 141.844 33.7188H143.688V23.4375C143.667 21.75 143.365 20.1458 142.781 18.625H155.125ZM180.562 0.34375V9.625H169.969V17.0312H180.562V26.3125H169.969V33.7188H180.562V43H169.844C165.969 42.9583 163.615 42.8021 162.781 42.5312C161.01 41.9688 159.875 40.6875 159.375 38.6875C158.771 36.4583 158.49 32.7708 158.531 27.625V14.0312C158.531 12.6979 158.604 11.1458 158.75 9.375C158.896 7.60417 159.052 6.35417 159.219 5.625C159.677 3.64583 160.5 2.27083 161.688 1.5C162.521 0.979167 163.406 0.666667 164.344 0.5625C165.365 0.458333 167.198 0.385417 169.844 0.34375H180.562Z" fill="#0F6FFF"/>
<path d="M215.094 0.34375H226.531V19.4062C226.51 22.9688 225.719 27.0625 224.156 31.6875C222.906 35.3542 221.167 39.125 218.938 43H206.531C204.135 38.8333 202.271 34.6875 200.938 30.5625C199.604 26.4167 198.938 22.6979 198.938 19.4062V0.34375H210.375V31C210.375 32.1458 210.521 32.9271 210.812 33.3438C211.271 34.0104 211.917 34.3438 212.75 34.3438C213.708 34.3438 214.396 33.9167 214.812 33.0625C215 32.6875 215.094 32 215.094 31V0.34375ZM230.25 0.34375H241.688V43H230.25V0.34375ZM267.5 0.34375V9.625H256.906V17.0312H267.5V26.3125H256.906V33.7188H267.5V43H256.781C252.906 42.9583 250.552 42.8021 249.719 42.5312C247.948 41.9688 246.812 40.6875 246.312 38.6875C245.708 36.4583 245.427 32.7708 245.469 27.625V14.0312C245.469 12.6979 245.542 11.1458 245.688 9.375C245.833 7.60417 245.99 6.35417 246.156 5.625C246.615 3.64583 247.438 2.27083 248.625 1.5C249.458 0.979167 250.344 0.666667 251.281 0.5625C252.302 0.458333 254.135 0.385417 256.781 0.34375H267.5ZM290.906 0.34375V9.625H285.719V43H274.281V9.625H269.094V0.34375H290.906Z" fill="#FF4747"/>
</svg>
