<svg width="25" height="24" viewBox="0 0 25 24" fill="none" xmlns="http://www.w3.org/2000/svg">
<path d="M12.6 2C7.08998 2 2.59998 6.49 2.59998 12C2.59998 17.51 7.08998 22 12.6 22C18.11 22 22.6 17.51 22.6 12C22.6 6.49 18.11 2 12.6 2ZM16.6 12.75H13.35V16C13.35 16.41 13.01 16.75 12.6 16.75C12.19 16.75 11.85 16.41 11.85 16V12.75H8.59998C8.18998 12.75 7.84998 12.41 7.84998 12C7.84998 11.59 8.18998 11.25 8.59998 11.25H11.85V8C11.85 7.59 12.19 7.25 12.6 7.25C13.01 7.25 13.35 7.59 13.35 8V11.25H16.6C17.01 11.25 17.35 11.59 17.35 12C17.35 12.41 17.01 12.75 16.6 12.75Z" fill="#3563E9"/>
</svg>
