<svg width="25" height="24" viewBox="0 0 25 24" fill="none" xmlns="http://www.w3.org/2000/svg">
<path d="M12.2001 2C6.68007 2 2.20007 6.48 2.20007 12C2.20007 17.52 6.68007 22 12.2001 22C17.7201 22 22.2001 17.52 22.2001 12C22.2001 6.48 17.7201 2 12.2001 2ZM15.7301 12.03C15.5801 12.18 15.3901 12.25 15.2001 12.25C15.0101 12.25 14.8201 12.18 14.6701 12.03L12.9501 10.31V15.5C12.9501 15.91 12.6101 16.25 12.2001 16.25C11.7901 16.25 11.4501 15.91 11.4501 15.5V10.31L9.73007 12.03C9.44007 12.32 8.96007 12.32 8.67007 12.03C8.38007 11.74 8.38007 11.26 8.67007 10.97L11.6701 7.97C11.9601 7.68 12.4401 7.68 12.7301 7.97L15.7301 10.97C16.0201 11.26 16.0201 11.74 15.7301 12.03Z" fill="#3563E9"/>
</svg>
