<svg width="16" height="16" viewBox="0 0 16 16" fill="none" xmlns="http://www.w3.org/2000/svg">
<path d="M2.83984 7.34663V10.66C2.83984 11.8733 2.83984 11.8733 3.98651 12.6466L7.13984 14.4666C7.61318 14.74 8.38651 14.74 8.85984 14.4666L12.0132 12.6466C13.1598 11.8733 13.1598 11.8733 13.1598 10.66V7.34663C13.1598 6.13329 13.1598 6.13329 12.0132 5.35996L8.85984 3.53996C8.38651 3.26663 7.61318 3.26663 7.13984 3.53996L3.98651 5.35996C2.83984 6.13329 2.83984 6.13329 2.83984 7.34663Z" stroke="#404040" stroke-linecap="round" stroke-linejoin="round"/>
<path d="M11.6663 5.08634V3.33301C11.6663 1.99967 10.9997 1.33301 9.66634 1.33301H6.33301C4.99967 1.33301 4.33301 1.99967 4.33301 3.33301V5.03967" stroke="#404040" stroke-linecap="round" stroke-linejoin="round"/>
<path d="M8.42018 7.32664L8.80018 7.91997C8.86018 8.01331 8.99351 8.10664 9.09351 8.13331L9.77351 8.30664C10.1935 8.41331 10.3068 8.77331 10.0335 9.10664L9.58685 9.64664C9.52018 9.73331 9.46685 9.88664 9.47351 9.99331L9.51351 10.6933C9.54018 11.1266 9.23351 11.3466 8.83351 11.1866L8.18018 10.9266C8.08018 10.8866 7.91351 10.8866 7.81351 10.9266L7.16018 11.1866C6.76018 11.3466 6.45351 11.12 6.48018 10.6933L6.52018 9.99331C6.52685 9.88664 6.47351 9.72664 6.40685 9.64664L5.96018 9.10664C5.68685 8.77331 5.80018 8.41331 6.22018 8.30664L6.90018 8.13331C7.00685 8.10664 7.14018 8.00664 7.19351 7.91997L7.57351 7.32664C7.81351 6.96664 8.18685 6.96664 8.42018 7.32664Z" stroke="#404040" stroke-linecap="round" stroke-linejoin="round"/>
</svg>
