<svg width="24" height="24" viewBox="0 0 24 24" fill="none" xmlns="http://www.w3.org/2000/svg">
<path d="M10.8594 1.75H13.1494C13.6829 1.75 14.2833 1.94093 14.8242 2.27539C15.2974 2.56795 15.6963 2.95215 15.9531 3.36719L16.0537 3.54688L16.7715 5.00098L16.7754 5.00879L16.7793 5.01562C17.013 5.45185 17.4787 5.75 18 5.75C19.1013 5.75009 20.1685 6.21288 20.9238 7.02148H20.9248C21.6915 7.84177 22.072 8.89706 22.001 10.0078V10.0088L21.4805 18.2686C21.3965 19.5877 20.957 20.5693 20.2617 21.2217C19.5662 21.8742 18.5585 22.25 17.2393 22.25H6.75977C5.46029 22.25 4.44661 21.8644 3.74219 21.2021C3.03808 20.5402 2.59279 19.555 2.51855 18.2617V18.2588L1.99902 10.0088V10.0078L1.99023 9.7998C1.97637 8.76343 2.35708 7.78124 3.07324 7.02344L3.0752 7.02148C3.83063 6.21272 4.89851 5.75 6 5.75C6.51242 5.74988 6.99235 5.44954 7.22559 4.9834L7.22656 4.98438L7.94629 3.55469C8.19175 3.06817 8.63677 2.61178 9.17969 2.27637C9.72295 1.94076 10.3257 1.75007 10.8594 1.75ZM10.8594 2.25C10.3706 2.25008 9.85995 2.43646 9.43652 2.69824C9.01263 2.96033 8.6163 3.33457 8.39355 3.77344L8.39258 3.77637L7.67578 5.20996C7.3392 5.859 6.69756 6.24988 6 6.25C5.08191 6.25 4.22434 6.59986 3.56641 7.22656L3.43457 7.3584C2.7719 8.06757 2.43084 9.00354 2.50098 9.97559L3.02051 18.2314C3.08557 19.3216 3.41752 20.2223 4.08008 20.8467C4.74306 21.4714 5.66361 21.75 6.75977 21.75H17.2393C18.3311 21.75 19.2486 21.4708 19.9111 20.8467C20.5732 20.2228 20.9083 19.3228 20.9785 18.2324V18.2314L21.499 9.97168V9.96973C21.557 9.00611 21.2311 8.0708 20.5654 7.3584L20.4336 7.22656C19.7757 6.59973 18.9181 6.25008 18 6.25C17.3443 6.25 16.7377 5.90462 16.3877 5.34082L16.3213 5.22559L15.5967 3.77637C15.3783 3.33975 14.9826 2.96741 14.5605 2.70703C14.1384 2.44666 13.6282 2.25977 13.1396 2.25977H11.3594V2.25H10.8594Z" fill="#1C1C28" stroke="#FAFAFA"/>
<path d="M10.5 7.75H13.5C13.6339 7.75 13.75 7.86614 13.75 8C13.75 8.13386 13.6339 8.25 13.5 8.25H10.5C10.3661 8.25 10.25 8.13386 10.25 8C10.25 7.86614 10.3661 7.75 10.5 7.75Z" fill="#1C1C28" stroke="#FAFAFA"/>
<path d="M12 11.25C13.9339 11.25 15.5 12.8161 15.5 14.75C15.5 16.6839 13.9339 18.25 12 18.25C10.0661 18.25 8.5 16.6839 8.5 14.75C8.5 12.8161 10.0661 11.25 12 11.25ZM12 11.75C10.3439 11.75 9 13.0939 9 14.75C9 16.4061 10.3439 17.75 12 17.75C13.6561 17.75 15 16.4061 15 14.75C15 13.0939 13.6561 11.75 12 11.75Z" fill="#1C1C28" stroke="#FAFAFA"/>
</svg>
