<svg width="32" height="32" viewBox="0 0 32 32" fill="none" xmlns="http://www.w3.org/2000/svg">
<path d="M20.68 3.77344H11.32C8.00004 3.77344 7.26671 5.42677 6.84004 7.45344L5.33337 14.6668H26.6667L25.16 7.45344C24.7334 5.42677 24 3.77344 20.68 3.77344Z" stroke="#1C1C28" stroke-width="2" stroke-linecap="round" stroke-linejoin="round"/>
<path d="M29.32 26.427C29.4667 27.987 28.2133 29.3337 26.6133 29.3337H24.1067C22.6667 29.3337 22.4667 28.7203 22.2133 27.9603L21.9467 27.1603C21.5733 26.067 21.3333 25.3337 19.4133 25.3337H12.5867C10.6667 25.3337 10.3867 26.1603 10.0533 27.1603L9.78668 27.9603C9.53335 28.7203 9.33335 29.3337 7.89335 29.3337H5.38668C3.78668 29.3337 2.53335 27.987 2.68001 26.427L3.42668 18.307C3.61335 16.307 4.00001 14.667 7.49335 14.667H24.5067C28 14.667 28.3867 16.307 28.5733 18.307L29.32 26.427Z" stroke="#1C1C28" stroke-width="2" stroke-linecap="round" stroke-linejoin="round"/>
<path d="M5.33333 10.667H4" stroke="#1C1C28" stroke-width="2" stroke-linecap="round" stroke-linejoin="round"/>
<path d="M28 10.667H26.6666" stroke="#1C1C28" stroke-width="2" stroke-linecap="round" stroke-linejoin="round"/>
<path d="M16 4V6.66667" stroke="#1C1C28" stroke-width="2" stroke-linecap="round" stroke-linejoin="round"/>
<path d="M14 6.66699H18" stroke="#1C1C28" stroke-width="2" stroke-linecap="round" stroke-linejoin="round"/>
<path d="M8 20H12" stroke="#1C1C28" stroke-width="2" stroke-linecap="round" stroke-linejoin="round"/>
<path d="M20 20H24" stroke="#1C1C28" stroke-width="2" stroke-linecap="round" stroke-linejoin="round"/>
</svg>
