<svg width="20" height="20" viewBox="0 0 20 20" fill="none" xmlns="http://www.w3.org/2000/svg">
<path d="M17.4998 5.0625C17.649 5.0625 17.7926 5.12198 17.8982 5.22754C18.0036 5.333 18.0631 5.47592 18.0632 5.625C18.0632 5.77428 18.0037 5.91788 17.8982 6.02344L7.89819 16.0234C7.84596 16.0757 7.78385 16.1172 7.71558 16.1455C7.64729 16.1738 7.57368 16.1885 7.49976 16.1885C7.42602 16.1884 7.35303 16.1737 7.28491 16.1455C7.21668 16.1172 7.15451 16.0757 7.10229 16.0234L2.72729 11.6484C2.62174 11.5429 2.56226 11.3993 2.56226 11.25C2.56235 11.1008 2.62182 10.958 2.72729 10.8525C2.83277 10.7471 2.9756 10.6876 3.12476 10.6875C3.27403 10.6875 3.41764 10.747 3.52319 10.8525L7.45581 14.7861L7.49976 14.8301L7.54468 14.7861L17.1023 5.22754C17.2078 5.12207 17.3506 5.06259 17.4998 5.0625Z" fill="#3563E9" stroke="#3563E9" stroke-width="0.125"/>
</svg>
