<svg width="32" height="32" viewBox="0 0 32 32" fill="none" xmlns="http://www.w3.org/2000/svg">
<path d="M28.7074 9.70806L12.7074 25.7081C12.6145 25.801 12.5042 25.8748 12.3828 25.9251C12.2614 25.9754 12.1313 26.0013 11.9999 26.0013C11.8685 26.0013 11.7384 25.9754 11.617 25.9251C11.4956 25.8748 11.3853 25.801 11.2924 25.7081L4.29241 18.7081C4.10477 18.5204 3.99935 18.2659 3.99935 18.0006C3.99935 17.7352 4.10477 17.4807 4.29241 17.2931C4.48005 17.1054 4.73454 17 4.99991 17C5.26527 17 5.51977 17.1054 5.70741 17.2931L11.9999 23.5868L27.2924 8.29306C27.48 8.10541 27.7345 8 27.9999 8C28.2653 8 28.5198 8.10541 28.7074 8.29306C28.8951 8.4807 29.0005 8.73519 29.0005 9.00056C29.0005 9.26592 28.8951 9.52042 28.7074 9.70806Z" fill="#171717"/>
</svg>
