<svg width="54" height="54" viewBox="0 0 54 54" fill="none" xmlns="http://www.w3.org/2000/svg">
<path d="M38.7209 19.3865C38.9118 19.5772 39.0633 19.8037 39.1667 20.053C39.27 20.3023 39.3232 20.5696 39.3232 20.8394C39.3232 21.1093 39.27 21.3765 39.1667 21.6258C39.0633 21.8751 38.9118 22.1016 38.7209 22.2923L24.3459 36.6673C24.1552 36.8583 23.9287 37.0097 23.6794 37.1131C23.4301 37.2164 23.1629 37.2696 22.893 37.2696C22.6231 37.2696 22.3559 37.2164 22.1066 37.1131C21.8573 37.0097 21.6308 36.8583 21.4401 36.6673L15.2794 30.5066C14.8941 30.1213 14.6776 29.5987 14.6776 29.0537C14.6776 28.5088 14.8941 27.9861 15.2794 27.6008C15.6647 27.2155 16.1873 26.999 16.7323 26.999C17.2772 26.999 17.7999 27.2155 18.1852 27.6008L22.893 32.3112L35.8151 19.3865C36.0058 19.1956 36.2323 19.0441 36.4816 18.9408C36.7309 18.8374 36.9981 18.7842 37.268 18.7842C37.5379 18.7842 37.8051 18.8374 38.0544 18.9408C38.3037 19.0441 38.5302 19.1956 38.7209 19.3865ZM53.6966 27.0001C53.6966 32.2802 52.1309 37.4417 49.1974 41.8319C46.264 46.2221 42.0946 49.6438 37.2164 51.6644C32.3383 53.685 26.9705 54.2137 21.7919 53.1836C16.6133 52.1535 11.8565 49.6109 8.12292 45.8774C4.38936 42.1438 1.84677 37.387 0.816687 32.2084C-0.2134 27.0298 0.315278 21.662 2.33587 16.7839C4.35646 11.9057 7.7782 7.73631 12.1684 4.80287C16.5586 1.86943 21.7201 0.303711 27.0001 0.303711C34.0782 0.311185 40.8642 3.12624 45.8691 8.13117C50.874 13.1361 53.6891 19.9221 53.6966 27.0001ZM49.5894 27.0001C49.5894 22.5324 48.2646 18.165 45.7825 14.4502C43.3003 10.7354 39.7723 7.84009 35.6447 6.13036C31.517 4.42063 26.9751 3.97329 22.5932 4.8449C18.2113 5.71651 14.1863 7.86793 11.0271 11.0271C7.86795 14.1863 5.71652 18.2113 4.84491 22.5932C3.9733 26.9751 4.42064 31.517 6.13037 35.6447C7.8401 39.7723 10.7354 43.3003 14.4502 45.7824C18.165 48.2646 22.5324 49.5894 27.0001 49.5894C32.9891 49.5826 38.7308 47.2005 42.9657 42.9657C47.2005 38.7308 49.5826 32.9891 49.5894 27.0001Z" fill="#6CD185"/>
</svg>
