<svg width="16" height="16" viewBox="0 0 16 16" fill="none" xmlns="http://www.w3.org/2000/svg">
<g clip-path="url(#clip0_8_2693)">
<path d="M0 8C0 3.58172 3.58172 0 8 0C12.4183 0 16 3.58172 16 8C16 12.4183 12.4183 16 8 16C3.58172 16 0 12.4183 0 8Z" fill="white"/>
<path d="M8 0.666992C12.0501 0.666992 15.333 3.94991 15.333 8C15.333 12.0501 12.0501 15.333 8 15.333C3.94991 15.333 0.666992 12.0501 0.666992 8C0.666992 3.94991 3.94991 0.666992 8 0.666992Z" fill="#3563E9"/>
<path d="M8 0.666992C12.0501 0.666992 15.333 3.94991 15.333 8C15.333 12.0501 12.0501 15.333 8 15.333C3.94991 15.333 0.666992 12.0501 0.666992 8C0.666992 3.94991 3.94991 0.666992 8 0.666992Z" stroke="#3563E9" stroke-width="1.33333"/>
<path d="M11.2655 6.51565L7.26554 10.5157C7.2307 10.5506 7.18931 10.5783 7.14372 10.5973C7.09814 10.6162 7.04927 10.6259 6.99992 10.6259C6.95056 10.6259 6.90169 10.6162 6.85611 10.5973C6.81053 10.5783 6.76913 10.5506 6.73429 10.5157L4.98429 8.76565C4.94941 8.73077 4.92174 8.68936 4.90286 8.64378C4.88398 8.59821 4.87427 8.54936 4.87427 8.50003C4.87427 8.4507 4.88398 8.40185 4.90286 8.35627C4.92174 8.31069 4.94941 8.26928 4.98429 8.2344C5.01918 8.19952 5.06059 8.17185 5.10616 8.15297C5.15174 8.13409 5.20059 8.12438 5.24992 8.12438C5.29925 8.12438 5.3481 8.13409 5.39367 8.15297C5.43925 8.17185 5.48066 8.19952 5.51554 8.2344L7.00023 9.71909L10.7349 5.98503C10.8054 5.91458 10.9009 5.875 11.0005 5.875C11.1002 5.875 11.1957 5.91458 11.2662 5.98503C11.3366 6.05547 11.3762 6.15102 11.3762 6.25065C11.3762 6.35028 11.3366 6.44583 11.2662 6.51628L11.2655 6.51565Z" fill="white"/>
</g>
<defs>
<clipPath id="clip0_8_2693">
<path d="M0 8C0 3.58172 3.58172 0 8 0C12.4183 0 16 3.58172 16 8C16 12.4183 12.4183 16 8 16C3.58172 16 0 12.4183 0 8Z" fill="white"/>
</clipPath>
</defs>
</svg>
