<svg width="25" height="24" viewBox="0 0 25 24" fill="none" xmlns="http://www.w3.org/2000/svg">
<path d="M9.40039 6C8.30039 6 7.40039 6.9 7.40039 8C7.40039 9.1 8.30039 10 9.40039 10C10.5004 10 11.4004 9.1 11.4004 8" stroke="#3563E9" stroke-width="1.25" stroke-linecap="round" stroke-linejoin="round"/>
<path d="M2.40039 13.04V15C2.40039 20 4.40039 22 9.40039 22H15.4004C20.4004 22 22.4004 20 22.4004 15V10" stroke="#3563E9" stroke-width="1.25" stroke-linecap="round" stroke-linejoin="round"/>
<path d="M13.4004 2.00049H9.40039C4.40039 2.00049 2.40039 4.00049 2.40039 9.00049" stroke="#3563E9" stroke-width="1.25" stroke-linecap="round" stroke-linejoin="round"/>
<path d="M18.3997 2.00049V8.00049L20.3997 6.00049" stroke="#3563E9" stroke-width="1.25" stroke-linecap="round" stroke-linejoin="round"/>
<path d="M18.4001 8L16.4001 6" stroke="#3563E9" stroke-width="1.25" stroke-linecap="round" stroke-linejoin="round"/>
<path d="M3.07007 18.9505L8.00007 15.6405C8.79007 15.1105 9.93007 15.1705 10.6401 15.7805L10.9701 16.0705C11.7501 16.7405 13.0101 16.7405 13.7901 16.0705L17.9501 12.5005C18.7301 11.8305 19.9901 11.8305 20.7701 12.5005L22.4001 13.9005" stroke="#3563E9" stroke-width="1.25" stroke-linecap="round" stroke-linejoin="round"/>
</svg>
