<svg width="25" height="24" viewBox="0 0 25 24" fill="none" xmlns="http://www.w3.org/2000/svg">
<path d="M6.40002 10V8C6.40002 4.69 7.40002 2 12.4 2C17.4 2 18.4 4.69 18.4 8V10" stroke="#3563E9" stroke-width="1.5" stroke-linecap="round" stroke-linejoin="round"/>
<path d="M12.4 18.5C13.7807 18.5 14.9 17.3807 14.9 16C14.9 14.6193 13.7807 13.5 12.4 13.5C11.0193 13.5 9.90002 14.6193 9.90002 16C9.90002 17.3807 11.0193 18.5 12.4 18.5Z" stroke="#3563E9" stroke-width="1.5" stroke-linecap="round" stroke-linejoin="round"/>
<path d="M17.4 22H7.40002C3.40002 22 2.40002 21 2.40002 17V15C2.40002 11 3.40002 10 7.40002 10H17.4C21.4 10 22.4 11 22.4 15V17C22.4 21 21.4 22 17.4 22Z" stroke="#3563E9" stroke-width="1.5" stroke-linecap="round" stroke-linejoin="round"/>
</svg>
