<svg width="25" height="24" viewBox="0 0 25 24" fill="none" xmlns="http://www.w3.org/2000/svg">
<path d="M9.1001 19H8.6001C4.6001 19 2.6001 18 2.6001 13V8C2.6001 4 4.6001 2 8.6001 2H16.6001C20.6001 2 22.6001 4 22.6001 8V13C22.6001 17 20.6001 19 16.6001 19H16.1001C15.7901 19 15.4901 19.15 15.3001 19.4L13.8001 21.4C13.1401 22.28 12.0601 22.28 11.4001 21.4L9.9001 19.4C9.7401 19.18 9.3701 19 9.1001 19Z" stroke="#3563E9" stroke-width="1.5" stroke-miterlimit="10" stroke-linecap="round" stroke-linejoin="round"/>
<path d="M7.6001 8H17.6001" stroke="#3563E9" stroke-width="1.5" stroke-linecap="round" stroke-linejoin="round"/>
<path d="M7.6001 13H13.6001" stroke="#3563E9" stroke-width="1.5" stroke-linecap="round" stroke-linejoin="round"/>
</svg>
