<svg width="25" height="24" viewBox="0 0 25 24" fill="none" xmlns="http://www.w3.org/2000/svg">
<path d="M17.4 20.5H7.40002C4.40002 20.5 2.40002 19 2.40002 15.5V8.5C2.40002 5 4.40002 3.5 7.40002 3.5H17.4C20.4 3.5 22.4 5 22.4 8.5V15.5C22.4 19 20.4 20.5 17.4 20.5Z" stroke="#3563E9" stroke-width="1.5" stroke-miterlimit="10" stroke-linecap="round" stroke-linejoin="round"/>
<path d="M12.4 15C14.0569 15 15.4 13.6569 15.4 12C15.4 10.3431 14.0569 9 12.4 9C10.7432 9 9.40002 10.3431 9.40002 12C9.40002 13.6569 10.7432 15 12.4 15Z" stroke="#3563E9" stroke-width="1.5" stroke-miterlimit="10" stroke-linecap="round" stroke-linejoin="round"/>
<path d="M2.40002 9H3.40002C6.40002 9 7.40002 8 7.40002 5V4" stroke="#3563E9" stroke-width="1.5" stroke-miterlimit="10" stroke-linecap="round" stroke-linejoin="round"/>
<path d="M22.4 9H21.4C18.4 9 17.4 8 17.4 5V4" stroke="#3563E9" stroke-width="1.5" stroke-miterlimit="10" stroke-linecap="round" stroke-linejoin="round"/>
<path d="M2.40002 15H3.40002C6.40002 15 7.40002 16 7.40002 19V20" stroke="#3563E9" stroke-width="1.5" stroke-miterlimit="10" stroke-linecap="round" stroke-linejoin="round"/>
<path d="M22.4 15H21.4C18.4 15 17.4 16 17.4 19V20" stroke="#3563E9" stroke-width="1.5" stroke-miterlimit="10" stroke-linecap="round" stroke-linejoin="round"/>
</svg>
