<svg width="25" height="24" viewBox="0 0 25 24" fill="none" xmlns="http://www.w3.org/2000/svg">
<path d="M5.80005 10C4.70005 10 3.80005 10.9 3.80005 12C3.80005 13.1 4.70005 14 5.80005 14C6.90005 14 7.80005 13.1 7.80005 12C7.80005 10.9 6.90005 10 5.80005 10Z" fill="#3563E9" stroke="#3563E9" stroke-width="1.5"/>
<path d="M19.8 10C18.7 10 17.8 10.9 17.8 12C17.8 13.1 18.7 14 19.8 14C20.9 14 21.8 13.1 21.8 12C21.8 10.9 20.9 10 19.8 10Z" fill="#3563E9" stroke="#3563E9" stroke-width="1.5"/>
<path d="M12.8 10C11.7 10 10.8 10.9 10.8 12C10.8 13.1 11.7 14 12.8 14C13.9 14 14.8 13.1 14.8 12C14.8 10.9 13.9 10 12.8 10Z" fill="#3563E9" stroke="#3563E9" stroke-width="1.5"/>
</svg>
