<svg width="32" height="32" viewBox="0 0 32 32" fill="none" xmlns="http://www.w3.org/2000/svg">
<path d="M22.6665 28H9.33317C3.99984 28 2.6665 26.6667 2.6665 21.3333V10.6667C2.6665 5.33333 3.99984 4 9.33317 4H22.6665C27.9998 4 29.3332 5.33333 29.3332 10.6667V21.3333C29.3332 26.6667 27.9998 28 22.6665 28Z" stroke="#1C1C28" stroke-width="2" stroke-linecap="round" stroke-linejoin="round"/>
<path d="M18.6665 10.667H25.3332" stroke="#1C1C28" stroke-width="2" stroke-linecap="round" stroke-linejoin="round"/>
<path d="M20 16H25.3333" stroke="#1C1C28" stroke-width="2" stroke-linecap="round" stroke-linejoin="round"/>
<path d="M22.6665 21.333H25.3332" stroke="#1C1C28" stroke-width="2" stroke-linecap="round" stroke-linejoin="round"/>
<path d="M11.3333 15.0532C12.6661 15.0532 13.7466 13.9727 13.7466 12.6399C13.7466 11.307 12.6661 10.2266 11.3333 10.2266C10.0004 10.2266 8.91992 11.307 8.91992 12.6399C8.91992 13.9727 10.0004 15.0532 11.3333 15.0532Z" stroke="#1C1C28" stroke-width="2" stroke-linecap="round" stroke-linejoin="round"/>
<path d="M15.9998 21.7733C15.8132 19.84 14.2798 18.32 12.3465 18.1467C11.6798 18.08 10.9998 18.08 10.3198 18.1467C8.3865 18.3333 6.85317 19.84 6.6665 21.7733" stroke="#1C1C28" stroke-width="2" stroke-linecap="round" stroke-linejoin="round"/>
</svg>
