<svg width="52" height="52" viewBox="0 0 52 52" fill="none" xmlns="http://www.w3.org/2000/svg">
<path d="M26.001 7.33105C36.3116 7.33131 44.6699 15.6903 44.6699 26.001C44.6698 29.6274 43.634 33.0113 41.8447 35.876L42.2295 36.0986C42.4753 36.2405 42.627 36.5033 42.627 36.7871V42.2246C42.627 42.5084 42.4753 42.7712 42.2295 42.9131L37.5195 45.6318C37.2738 45.7737 36.9713 45.7737 36.7256 45.6318L32.8271 43.3818C30.7128 44.2129 28.4103 44.6699 26.001 44.6699C15.6903 44.6699 7.33131 36.3116 7.33105 26.001C7.33105 15.6901 15.6901 7.33105 26.001 7.33105ZM26 43.0811C26.1407 43.0811 26.281 43.0786 26.4209 43.0752C26.281 43.0786 26.1407 43.0811 26 43.0811ZM26.501 43.0723C26.6077 43.0692 26.7141 43.0656 26.8203 43.0605C26.7141 43.0656 26.6077 43.0692 26.501 43.0723ZM26.9785 43.0518C27.0552 43.0474 27.1316 43.0425 27.208 43.0371C27.1316 43.0424 27.0552 43.0474 26.9785 43.0518ZM27.3828 43.0244C27.4519 43.0189 27.521 43.0132 27.5898 43.0068C27.521 43.0132 27.4519 43.0189 27.3828 43.0244ZM28.5508 42.8906C28.3298 42.9237 28.1074 42.952 27.8838 42.9766C28.1074 42.9519 28.3298 42.9238 28.5508 42.8906ZM28.8506 42.8428C28.8646 42.8404 28.8785 42.8374 28.8926 42.835C28.8785 42.8374 28.8646 42.8404 28.8506 42.8428ZM29.5791 42.7041C29.5843 42.703 29.5895 42.7013 29.5947 42.7002C29.5895 42.7013 29.5844 42.703 29.5791 42.7041ZM26.001 10.1113C17.2258 10.1113 10.1113 17.2258 10.1113 26.001C10.1115 34.776 17.2259 41.8896 26.001 41.8896C27.9788 41.8896 29.8716 41.5266 31.6182 40.8662V36.7871C31.6182 36.5033 31.7699 36.2406 32.0156 36.0986L36.7256 33.3799C36.9713 33.238 37.2738 33.2381 37.5195 33.3799L39.4355 34.4854C40.9892 32.0305 41.8896 29.1211 41.8896 26.001C41.8896 17.2259 34.776 10.1115 26.001 10.1113ZM42.6807 29.6875C42.6879 29.6547 42.6951 29.6218 42.7021 29.5889C42.6951 29.6218 42.6879 29.6546 42.6807 29.6875ZM42.8955 28.5107C42.9026 28.463 42.9094 28.4151 42.916 28.3672C42.9094 28.4151 42.9025 28.4629 42.8955 28.5107ZM42.9746 27.9023C42.9772 27.8789 42.9799 27.8555 42.9824 27.832C42.9799 27.8555 42.9772 27.8789 42.9746 27.9023ZM43.0635 26.7383C43.0665 26.6671 43.0691 26.5958 43.0713 26.5244C43.0691 26.5958 43.0665 26.6671 43.0635 26.7383ZM42.7334 22.5576H42.7344H42.7334ZM40.6074 17.1436H40.6084H40.6074Z" fill="url(#paint0_linear_114_7554)"/>
<mask id="mask0_114_7554" style="mask-type:luminance" maskUnits="userSpaceOnUse" x="7" y="7" width="38" height="39">
<path d="M26.001 7.33105C36.3116 7.33131 44.6699 15.6903 44.6699 26.001C44.6698 29.6274 43.634 33.0113 41.8447 35.876L42.2295 36.0986C42.4753 36.2405 42.627 36.5033 42.627 36.7871V42.2246C42.627 42.5084 42.4753 42.7712 42.2295 42.9131L37.5195 45.6318C37.2738 45.7737 36.9713 45.7737 36.7256 45.6318L32.8271 43.3818C30.7128 44.2129 28.4103 44.6699 26.001 44.6699C15.6903 44.6699 7.33131 36.3116 7.33105 26.001C7.33105 15.6901 15.6901 7.33105 26.001 7.33105ZM26 43.0811C26.1407 43.0811 26.281 43.0786 26.4209 43.0752C26.281 43.0786 26.1407 43.0811 26 43.0811ZM26.501 43.0723C26.6077 43.0692 26.7141 43.0656 26.8203 43.0605C26.7141 43.0656 26.6077 43.0692 26.501 43.0723ZM26.9785 43.0518C27.0552 43.0474 27.1316 43.0425 27.208 43.0371C27.1316 43.0424 27.0552 43.0474 26.9785 43.0518ZM27.3828 43.0244C27.4519 43.0189 27.521 43.0132 27.5898 43.0068C27.521 43.0132 27.4519 43.0189 27.3828 43.0244ZM28.5508 42.8906C28.3298 42.9237 28.1074 42.952 27.8838 42.9766C28.1074 42.9519 28.3298 42.9238 28.5508 42.8906ZM28.8506 42.8428C28.8646 42.8404 28.8785 42.8374 28.8926 42.835C28.8785 42.8374 28.8646 42.8404 28.8506 42.8428ZM29.5791 42.7041C29.5843 42.703 29.5895 42.7013 29.5947 42.7002C29.5895 42.7013 29.5844 42.703 29.5791 42.7041ZM26.001 10.1113C17.2258 10.1113 10.1113 17.2258 10.1113 26.001C10.1115 34.776 17.2259 41.8896 26.001 41.8896C27.9788 41.8896 29.8716 41.5266 31.6182 40.8662V36.7871C31.6182 36.5033 31.7699 36.2406 32.0156 36.0986L36.7256 33.3799C36.9713 33.238 37.2738 33.2381 37.5195 33.3799L39.4355 34.4854C40.9892 32.0305 41.8896 29.1211 41.8896 26.001C41.8896 17.2259 34.776 10.1115 26.001 10.1113ZM42.6807 29.6875C42.6879 29.6547 42.6951 29.6218 42.7021 29.5889C42.6951 29.6218 42.6879 29.6546 42.6807 29.6875ZM42.8955 28.5107C42.9026 28.463 42.9094 28.4151 42.916 28.3672C42.9094 28.4151 42.9025 28.4629 42.8955 28.5107ZM42.9746 27.9023C42.9772 27.8789 42.9799 27.8555 42.9824 27.832C42.9799 27.8555 42.9772 27.8789 42.9746 27.9023ZM43.0635 26.7383C43.0665 26.6671 43.0691 26.5958 43.0713 26.5244C43.0691 26.5958 43.0665 26.6671 43.0635 26.7383ZM42.7334 22.5576H42.7344H42.7334ZM40.6074 17.1436H40.6084H40.6074Z" fill="white"/>
</mask>
<g mask="url(#mask0_114_7554)">
<g style="mix-blend-mode:multiply" opacity="0.3">
<path d="M31.7773 47.667H20.2227L26 26L31.7773 47.667ZM14.7646 45.4062L6.59375 37.2354L26 26L14.7646 45.4062ZM26 26L4.33301 31.7773V20.2227L26 26ZM47.667 31.7773L26 26L47.667 20.2227V31.7773ZM26 26L20.2227 4.33301H31.7773L26 26ZM45.4062 14.7646L26 26L37.2354 6.59375L45.4062 14.7646ZM26 26L6.59375 14.7646L14.7646 6.59375L26 26Z" fill="#FFD640"/>
</g>
</g>
<path opacity="0.2" d="M10.5469 31.1571C12.7041 37.624 18.8074 42.2861 25.9996 42.2861C26.9662 42.2861 27.9132 42.2019 28.8336 42.0404" stroke="#EDAA2F" stroke-width="0.794445" stroke-linecap="round" stroke-linejoin="round"/>
<path opacity="0.6" d="M17.6426 39.9812C20.0858 41.4448 22.9446 42.2861 25.9999 42.2861" stroke="white" stroke-width="0.794445" stroke-linecap="round" stroke-linejoin="round"/>
<path d="M11.5283 37.0322C14.8824 41.4354 20.1478 44.2722 26.0683 44.2722C27.0875 44.2722 28.0873 44.1882 29.0613 44.0265" stroke="url(#paint1_linear_114_7554)" stroke-width="0.794445" stroke-linecap="round" stroke-linejoin="round"/>
<path opacity="0.4" d="M44.272 25.9998C44.272 15.9083 36.0912 7.72754 25.9998 7.72754C15.9083 7.72754 7.72754 15.9083 7.72754 25.9998" stroke="white" stroke-width="0.794445" stroke-linecap="round" stroke-linejoin="round"/>
<path opacity="0.2" d="M11.0664 19.4917C13.5781 13.7365 19.3193 9.71387 26.0001 9.71387C32.6808 9.71387 38.422 13.7365 40.9337 19.4917" stroke="#DA731B" stroke-width="0.794445" stroke-linecap="round" stroke-linejoin="round"/>
<path opacity="0.2" d="M17.6426 12.0188C20.0858 10.5552 22.9446 9.71387 25.9999 9.71387C29.0552 9.71387 31.9139 10.5552 34.3572 12.0188" stroke="#DA731B" stroke-width="0.794445" stroke-linecap="round" stroke-linejoin="round"/>
<path opacity="0.4" d="M38.8399 34.6432C38.3675 34.3704 37.4226 33.8249 37.4226 33.8249C37.2383 33.7185 37.0112 33.7185 36.8268 33.8249C36.2729 34.1447 35.8805 34.3713 35.6494 34.5047C35.1686 34.7823 34.7761 35.0089 34.472 35.1845C33.9487 35.4866 33.1638 35.9398 32.1172 36.544" stroke="white" stroke-width="0.794445" stroke-linecap="round"/>
<path opacity="0.4" d="M42.2858 39.7438V42.2532C42.2858 42.3962 42.2089 42.5282 42.0845 42.5987L37.4223 45.2434C37.238 45.3499 37.0108 45.3499 36.8265 45.2434C36.2726 44.9236 35.8801 44.697 35.6491 44.5636C35.1683 44.286 34.7758 44.0594 34.4717 43.8839" stroke="#FDB115" stroke-width="0.794445" stroke-linecap="round" stroke-linejoin="round"/>
<path d="M36.8268 33.8262C36.2729 34.146 35.8805 34.3726 35.6494 34.5059" stroke="white" stroke-width="0.794445" stroke-linecap="round"/>
<g filter="url(#filter0_d_114_7554)">
<path fill-rule="evenodd" clip-rule="evenodd" d="M31.863 37.5794L31.6911 37.5116C31.586 37.4701 31.5344 37.3512 31.5758 37.2461C31.5966 37.1934 31.6384 37.1516 31.6911 37.1308L31.863 37.063C32.0613 36.9848 32.2182 36.8279 32.2964 36.6297L32.3642 36.4577C32.4057 36.3526 32.5245 36.301 32.6297 36.3425C32.6824 36.3633 32.7242 36.405 32.745 36.4577L32.8128 36.6297C32.8909 36.8279 33.0479 36.9848 33.2461 37.063L33.418 37.1308C33.5232 37.1723 33.5748 37.2911 33.5333 37.3963C33.5125 37.449 33.4708 37.4908 33.418 37.5116L33.2461 37.5794C33.0479 37.6575 32.8909 37.8145 32.8128 38.0127L32.745 38.1846C32.7035 38.2898 32.5846 38.3414 32.4795 38.2999C32.4268 38.2791 32.385 38.2374 32.3642 38.1846L32.2964 38.0127C32.2182 37.8145 32.0613 37.6575 31.863 37.5794Z" fill="white"/>
</g>
<g filter="url(#filter1_d_114_7554)">
<path fill-rule="evenodd" clip-rule="evenodd" d="M41.4566 36.6382L41.2503 36.5568C41.1241 36.5071 41.0622 36.3645 41.1119 36.2383C41.1369 36.175 41.187 36.1249 41.2503 36.0999L41.4566 36.0186C41.6945 35.9248 41.8828 35.7364 41.9766 35.4985L42.0579 35.2923C42.1077 35.1661 42.2503 35.1041 42.3765 35.1539C42.4398 35.1789 42.4899 35.229 42.5148 35.2923L42.5962 35.4985C42.69 35.7364 42.8783 35.9248 43.1162 36.0186L43.3225 36.0999C43.4487 36.1497 43.5106 36.2923 43.4609 36.4185C43.4359 36.4818 43.3858 36.5319 43.3225 36.5568L43.1162 36.6382C42.8783 36.732 42.69 36.9203 42.5962 37.1582L42.5148 37.3645C42.4651 37.4907 42.3225 37.5526 42.1963 37.5029C42.133 37.4779 42.0829 37.4278 42.0579 37.3645L41.9766 37.1582C41.8828 36.9203 41.6945 36.732 41.4566 36.6382Z" fill="white"/>
</g>
<path fill-rule="evenodd" clip-rule="evenodd" d="M37.1219 41.6507L35.5666 42.2037C35.3037 42.2972 35.0288 42.0975 35.0365 41.8185L35.0819 40.1685L34.0753 38.8603C33.9051 38.6391 34.0101 38.316 34.2778 38.237L35.8611 37.7703L36.7942 36.4088C36.952 36.1785 37.2918 36.1785 37.4495 36.4088L38.3827 37.7703L39.966 38.237C40.2337 38.316 40.3387 38.6391 40.1685 38.8603L39.1619 40.1685L39.2073 41.8185C39.2149 42.0975 38.9401 42.2972 38.6771 42.2037L37.1219 41.6507Z" fill="url(#paint2_linear_114_7554)" stroke="white" stroke-width="0.794445" stroke-linecap="round" stroke-linejoin="round"/>
<g filter="url(#filter2_d_114_7554)">
<path fill-rule="evenodd" clip-rule="evenodd" d="M31.5259 43.3901L31.3196 43.3088C31.1934 43.259 31.1315 43.1164 31.1813 42.9902C31.2062 42.927 31.2563 42.8769 31.3196 42.8519L31.5259 42.7705C31.7638 42.6767 31.9521 42.4884 32.0459 42.2505L32.1273 42.0442C32.177 41.918 32.3197 41.8561 32.4458 41.9059C32.5091 41.9308 32.5592 41.9809 32.5842 42.0442L32.6655 42.2505C32.7594 42.4884 32.9477 42.6767 33.1856 42.7705L33.3919 42.8519C33.518 42.9017 33.58 43.0443 33.5302 43.1704C33.5052 43.2337 33.4551 43.2838 33.3919 43.3088L33.1856 43.3901C32.9477 43.484 32.7594 43.6723 32.6655 43.9102L32.5842 44.1165C32.5344 44.2426 32.3918 44.3046 32.2656 44.2548C32.2023 44.2299 32.1522 44.1798 32.1273 44.1165L32.0459 43.9102C31.9521 43.6723 31.7638 43.484 31.5259 43.3901Z" fill="white"/>
</g>
<g filter="url(#filter3_d_114_7554)">
<path fill-rule="evenodd" clip-rule="evenodd" d="M40.8782 42.6394L40.775 42.5987C40.712 42.5738 40.681 42.5025 40.7059 42.4395C40.7183 42.4078 40.7434 42.3828 40.775 42.3703L40.8782 42.3296C40.9971 42.2827 41.0913 42.1885 41.1382 42.0696L41.1789 41.9664C41.2038 41.9034 41.2751 41.8724 41.3381 41.8973C41.3698 41.9097 41.3948 41.9348 41.4073 41.9664L41.448 42.0696C41.4949 42.1885 41.5891 42.2827 41.708 42.3296L41.8112 42.3703C41.8742 42.3952 41.9052 42.4665 41.8803 42.5296C41.8679 42.5612 41.8428 42.5862 41.8112 42.5987L41.708 42.6394C41.5891 42.6863 41.4949 42.7805 41.448 42.8994L41.4073 43.0026C41.3824 43.0657 41.3111 43.0966 41.248 43.0717C41.2164 43.0593 41.1914 43.0342 41.1789 43.0026L41.1382 42.8994C41.0913 42.7805 40.9971 42.6863 40.8782 42.6394Z" fill="white"/>
</g>
<defs>
<filter id="filter0_d_114_7554" x="30.8393" y="35.6059" width="3.43077" height="3.43077" filterUnits="userSpaceOnUse" color-interpolation-filters="sRGB">
<feFlood flood-opacity="0" result="BackgroundImageFix"/>
<feColorMatrix in="SourceAlpha" type="matrix" values="0 0 0 0 0 0 0 0 0 0 0 0 0 0 0 0 0 0 127 0" result="hardAlpha"/>
<feOffset/>
<feGaussianBlur stdDeviation="0.361111"/>
<feColorMatrix type="matrix" values="0 0 0 0 1 0 0 0 0 0.94902 0 0 0 0 0.305882 0 0 0 1 0"/>
<feBlend mode="normal" in2="BackgroundImageFix" result="effect1_dropShadow_114_7554"/>
<feBlend mode="normal" in="SourceGraphic" in2="effect1_dropShadow_114_7554" result="shape"/>
</filter>
<filter id="filter1_d_114_7554" x="40.3725" y="34.4145" width="3.82823" height="3.82823" filterUnits="userSpaceOnUse" color-interpolation-filters="sRGB">
<feFlood flood-opacity="0" result="BackgroundImageFix"/>
<feColorMatrix in="SourceAlpha" type="matrix" values="0 0 0 0 0 0 0 0 0 0 0 0 0 0 0 0 0 0 127 0" result="hardAlpha"/>
<feOffset/>
<feGaussianBlur stdDeviation="0.361111"/>
<feColorMatrix type="matrix" values="0 0 0 0 1 0 0 0 0 0.94902 0 0 0 0 0.305882 0 0 0 1 0"/>
<feBlend mode="normal" in2="BackgroundImageFix" result="effect1_dropShadow_114_7554"/>
<feBlend mode="normal" in="SourceGraphic" in2="effect1_dropShadow_114_7554" result="shape"/>
</filter>
<filter id="filter2_d_114_7554" x="30.4418" y="41.1664" width="3.82823" height="3.82823" filterUnits="userSpaceOnUse" color-interpolation-filters="sRGB">
<feFlood flood-opacity="0" result="BackgroundImageFix"/>
<feColorMatrix in="SourceAlpha" type="matrix" values="0 0 0 0 0 0 0 0 0 0 0 0 0 0 0 0 0 0 127 0" result="hardAlpha"/>
<feOffset/>
<feGaussianBlur stdDeviation="0.361111"/>
<feColorMatrix type="matrix" values="0 0 0 0 1 0 0 0 0 0.94902 0 0 0 0 0.305882 0 0 0 1 0"/>
<feBlend mode="normal" in2="BackgroundImageFix" result="effect1_dropShadow_114_7554"/>
<feBlend mode="normal" in="SourceGraphic" in2="effect1_dropShadow_114_7554" result="shape"/>
</filter>
<filter id="filter3_d_114_7554" x="39.975" y="41.1664" width="2.63585" height="2.63585" filterUnits="userSpaceOnUse" color-interpolation-filters="sRGB">
<feFlood flood-opacity="0" result="BackgroundImageFix"/>
<feColorMatrix in="SourceAlpha" type="matrix" values="0 0 0 0 0 0 0 0 0 0 0 0 0 0 0 0 0 0 127 0" result="hardAlpha"/>
<feOffset/>
<feGaussianBlur stdDeviation="0.361111"/>
<feColorMatrix type="matrix" values="0 0 0 0 1 0 0 0 0 0.94902 0 0 0 0 0.305882 0 0 0 1 0"/>
<feBlend mode="normal" in2="BackgroundImageFix" result="effect1_dropShadow_114_7554"/>
<feBlend mode="normal" in="SourceGraphic" in2="effect1_dropShadow_114_7554" result="shape"/>
</filter>
<linearGradient id="paint0_linear_114_7554" x1="7.33105" y1="7.33105" x2="7.33105" y2="45.7382" gradientUnits="userSpaceOnUse">
<stop stop-color="#F9B800"/>
<stop offset="1" stop-color="#FDE046"/>
</linearGradient>
<linearGradient id="paint1_linear_114_7554" x1="30.0784" y1="44.169" x2="29.9931" y2="36.4972" gradientUnits="userSpaceOnUse">
<stop stop-color="#F8C417"/>
<stop offset="1" stop-color="#FFD937"/>
</linearGradient>
<linearGradient id="paint2_linear_114_7554" x1="33.5469" y1="35.9307" x2="33.5469" y2="43.0807" gradientUnits="userSpaceOnUse">
<stop stop-color="#FCA50E"/>
<stop offset="1" stop-color="#FFC823"/>
</linearGradient>
</defs>
</svg>
