<svg width="52" height="52" viewBox="0 0 52 52" fill="none" xmlns="http://www.w3.org/2000/svg">
<path d="M26.001 7.33105C36.3116 7.33131 44.6699 15.6903 44.6699 26.001C44.6698 29.9996 43.4111 33.7035 41.2705 36.7412L42.8848 37.9141C43.2841 38.2042 43.4512 38.719 43.2988 39.1885L41.4297 44.9414C41.2771 45.411 40.8395 45.7294 40.3457 45.7295H34.2969C33.8031 45.7295 33.3655 45.411 33.2129 44.9414L32.7188 43.4229C30.6341 44.2273 28.3693 44.6699 26.001 44.6699C15.6903 44.6699 7.33131 36.3116 7.33105 26.001C7.33105 15.6901 15.6901 7.33105 26.001 7.33105ZM26 10.1113C17.2248 10.1113 10.1113 17.2248 10.1113 26C10.1113 34.7752 17.2248 41.8887 26 41.8887C28.0691 41.8887 30.0456 41.4929 31.8584 40.7734L31.3438 39.1885C31.1914 38.7189 31.3584 38.2042 31.7578 37.9141L36.6514 34.3594C37.0509 34.0691 37.5917 34.0691 37.9912 34.3594L39.0195 35.1064C40.8267 32.5275 41.8887 29.3882 41.8887 26C41.8887 17.2248 34.7752 10.1113 26 10.1113Z" fill="url(#paint0_linear_114_7600)"/>
<mask id="mask0_114_7600" style="mask-type:alpha" maskUnits="userSpaceOnUse" x="7" y="7" width="38" height="39">
<path d="M26.001 7.33105C36.3116 7.33131 44.6699 15.6903 44.6699 26.001C44.6698 29.9996 43.4111 33.7035 41.2705 36.7412L42.8848 37.9141C43.2841 38.2042 43.4512 38.719 43.2988 39.1885L41.4297 44.9414C41.2771 45.411 40.8395 45.7294 40.3457 45.7295H34.2969C33.8031 45.7295 33.3655 45.411 33.2129 44.9414L32.7188 43.4229C30.6341 44.2273 28.3693 44.6699 26.001 44.6699C15.6903 44.6699 7.33131 36.3116 7.33105 26.001C7.33105 15.6901 15.6901 7.33105 26.001 7.33105ZM26 10.1113C17.2248 10.1113 10.1113 17.2248 10.1113 26C10.1113 34.7752 17.2248 41.8887 26 41.8887C28.0691 41.8887 30.0456 41.4929 31.8584 40.7734L31.3438 39.1885C31.1914 38.7189 31.3584 38.2042 31.7578 37.9141L36.6514 34.3594C37.0509 34.0691 37.5917 34.0691 37.9912 34.3594L39.0195 35.1064C40.8267 32.5275 41.8887 29.3882 41.8887 26C41.8887 17.2248 34.7752 10.1113 26 10.1113Z" fill="url(#paint1_linear_114_7600)"/>
</mask>
<g mask="url(#mask0_114_7600)">
<path opacity="0.2" d="M31.7773 48.3887H20.2227L26 26.7227L31.7773 48.3887ZM14.7646 46.1279L6.59375 37.957L26 26.7227L14.7646 46.1279ZM26 26.7227L4.33301 32.5V20.9443L26 26.7227ZM47.667 32.5L26 26.7227L47.667 20.9443V32.5ZM26 26.7227L20.2227 5.05566H31.7773L26 26.7227ZM45.4062 15.4873L26 26.7227L37.2354 7.31641L45.4062 15.4873ZM26 26.7217L6.59375 15.4863L14.7646 7.31543L26 26.7217Z" fill="url(#paint2_linear_114_7600)"/>
</g>
<path d="M38.8796 35.4315C38.5312 35.1742 37.8346 34.6595 37.8346 34.6595C37.4981 34.4039 37.0425 34.4039 36.7061 34.6595L31.958 38.2414" stroke="#D9E4E6" stroke-width="0.794445" stroke-linecap="round"/>
<path opacity="0.4" d="M37.8346 34.6595C37.4981 34.4039 37.0425 34.4039 36.7061 34.6595L31.958 38.2414" stroke="white" stroke-width="0.794445" stroke-linecap="round"/>
<path d="M36.7067 34.6592L35.5293 35.554" stroke="white" stroke-width="0.794445" stroke-linecap="round"/>
<path d="M35.1367 45.3119H39.7048" stroke="#94B4BD" stroke-opacity="0.496012" stroke-width="0.794445" stroke-linecap="round" stroke-linejoin="round"/>
<path opacity="0.2" d="M11.0166 32.394C13.5019 38.2102 19.2748 42.2861 25.9996 42.2861C26.9663 42.2861 27.9133 42.2019 28.8336 42.0404" stroke="#9EC2C7" stroke-width="0.794445" stroke-linecap="round" stroke-linejoin="round"/>
<path opacity="0.2" d="M40.9834 32.3926C41.6396 30.8566 42.0665 29.1993 42.2211 27.4636" stroke="#9EC2C7" stroke-width="0.794445" stroke-linecap="round" stroke-linejoin="round"/>
<path opacity="0.6" d="M17.6426 39.9812C20.0858 41.4448 22.9446 42.2861 25.9999 42.2861" stroke="white" stroke-width="0.794445" stroke-linecap="round" stroke-linejoin="round"/>
<path d="M11.5283 37.0322C14.8824 41.4354 20.1478 44.2722 26.0683 44.2722C27.0875 44.2722 28.0873 44.1882 29.0613 44.0265" stroke="#94B4BD" stroke-opacity="0.496012" stroke-width="0.794445" stroke-linecap="round" stroke-linejoin="round"/>
<path opacity="0.4" d="M44.272 25.9998C44.272 15.9083 36.0912 7.72754 25.9998 7.72754C15.9083 7.72754 7.72754 15.9083 7.72754 25.9998" stroke="white" stroke-width="0.794445" stroke-linecap="round" stroke-linejoin="round"/>
<path opacity="0.2" d="M10.9727 19.7103C13.4332 13.8386 19.2348 9.71387 25.9998 9.71387C32.7648 9.71387 38.5664 13.8386 41.027 19.7103" stroke="#B3D0D2" stroke-width="0.794445" stroke-linecap="round" stroke-linejoin="round"/>
<path opacity="0.2" d="M17.6426 12.0188C20.0858 10.5552 22.9446 9.71387 25.9999 9.71387C29.0552 9.71387 31.9139 10.5552 34.3572 12.0188" stroke="#B3D0D2" stroke-width="0.794445" stroke-linecap="round" stroke-linejoin="round"/>
<g filter="url(#filter0_i_114_7600)">
<path fill-rule="evenodd" clip-rule="evenodd" d="M37.3214 42.6337L35.7265 43.2008C35.453 43.2981 35.167 43.0904 35.175 42.8001L35.2216 41.1081L34.1894 39.7666C34.0123 39.5365 34.1215 39.2004 34.4 39.1183L36.0236 38.6397L36.9805 37.2434C37.1446 37.0039 37.4981 37.0039 37.6622 37.2434L38.6191 38.6397L40.2427 39.1183C40.5212 39.2004 40.6304 39.5365 40.4533 39.7666L39.4211 41.1081L39.4677 42.8001C39.4757 43.0904 39.1897 43.2981 38.9162 43.2008L37.3214 42.6337Z" fill="url(#paint3_linear_114_7600)"/>
</g>
<path fill-rule="evenodd" clip-rule="evenodd" d="M37.3214 42.6337L35.7265 43.2008C35.453 43.2981 35.167 43.0904 35.175 42.8001L35.2216 41.1081L34.1894 39.7666C34.0123 39.5365 34.1215 39.2004 34.4 39.1183L36.0236 38.6397L36.9805 37.2434C37.1446 37.0039 37.4981 37.0039 37.6622 37.2434L38.6191 38.6397L40.2427 39.1183C40.5212 39.2004 40.6304 39.5365 40.4533 39.7666L39.4211 41.1081L39.4677 42.8001C39.4757 43.0904 39.1897 43.2981 38.9162 43.2008L37.3214 42.6337Z" stroke="white" stroke-width="0.794445" stroke-linecap="round" stroke-linejoin="round"/>
<g filter="url(#filter1_d_114_7600)">
<path fill-rule="evenodd" clip-rule="evenodd" d="M41.7937 38.6985L41.6218 38.6307C41.5167 38.5892 41.465 38.4704 41.5065 38.3652C41.5273 38.3125 41.5691 38.2707 41.6218 38.2499L41.7937 38.1821C41.992 38.104 42.1489 37.947 42.2271 37.7488L42.2949 37.5769C42.3363 37.4717 42.4552 37.4201 42.5603 37.4616C42.6131 37.4824 42.6548 37.5241 42.6756 37.5769L42.7434 37.7488C42.8216 37.947 42.9785 38.104 43.1768 38.1821L43.3487 38.2499C43.4538 38.2914 43.5054 38.4103 43.464 38.5154C43.4432 38.5681 43.4014 38.6099 43.3487 38.6307L43.1768 38.6985C42.9785 38.7767 42.8216 38.9336 42.7434 39.1319L42.6756 39.3038C42.6341 39.4089 42.5153 39.4605 42.4102 39.4191C42.3574 39.3983 42.3157 39.3565 42.2949 39.3038L42.2271 39.1319C42.1489 38.9336 41.992 38.7767 41.7937 38.6985Z" fill="white"/>
</g>
<g filter="url(#filter2_d_114_7600)">
<path fill-rule="evenodd" clip-rule="evenodd" d="M32.5364 40.1834L32.4332 40.1427C32.3702 40.1178 32.3392 40.0465 32.3641 39.9834C32.3765 39.9518 32.4016 39.9267 32.4332 39.9142L32.5364 39.8735C32.6553 39.8266 32.7495 39.7325 32.7964 39.6135L32.8371 39.5104C32.862 39.4473 32.9333 39.4163 32.9964 39.4412C33.028 39.4537 33.053 39.4787 33.0655 39.5104L33.1062 39.6135C33.1531 39.7325 33.2473 39.8266 33.3662 39.8735L33.4694 39.9142C33.5324 39.9391 33.5634 40.0104 33.5385 40.0735C33.5261 40.1051 33.501 40.1302 33.4694 40.1427L33.3662 40.1834C33.2473 40.2303 33.1531 40.3244 33.1062 40.4434L33.0655 40.5465C33.0406 40.6096 32.9693 40.6406 32.9063 40.6157C32.8746 40.6032 32.8496 40.5782 32.8371 40.5465L32.7964 40.4434C32.7495 40.3244 32.6553 40.2303 32.5364 40.1834Z" fill="white"/>
</g>
<g filter="url(#filter3_d_114_7600)">
<path fill-rule="evenodd" clip-rule="evenodd" d="M36.1116 44.9509L36.0084 44.9103C35.9453 44.8854 35.9144 44.8141 35.9393 44.751C35.9517 44.7193 35.9768 44.6943 36.0084 44.6818L36.1116 44.6411C36.2305 44.5942 36.3247 44.5001 36.3716 44.3811L36.4123 44.278C36.4372 44.2149 36.5085 44.1839 36.5715 44.2088C36.6032 44.2213 36.6282 44.2463 36.6407 44.278L36.6814 44.3811C36.7283 44.5001 36.8225 44.5942 36.9414 44.6411L37.0446 44.6818C37.1076 44.7067 37.1386 44.778 37.1137 44.8411C37.1013 44.8727 37.0762 44.8978 37.0446 44.9103L36.9414 44.9509C36.8225 44.9978 36.7283 45.092 36.6814 45.2109L36.6407 45.3141C36.6158 45.3772 36.5445 45.4081 36.4814 45.3833C36.4498 45.3708 36.4248 45.3457 36.4123 45.3141L36.3716 45.2109C36.3247 45.092 36.2305 44.9978 36.1116 44.9509Z" fill="white"/>
</g>
<defs>
<filter id="filter0_i_114_7600" x="33.7061" y="36.667" width="7.23047" height="7.67828" filterUnits="userSpaceOnUse" color-interpolation-filters="sRGB">
<feFlood flood-opacity="0" result="BackgroundImageFix"/>
<feBlend mode="normal" in="SourceGraphic" in2="BackgroundImageFix" result="shape"/>
<feColorMatrix in="SourceAlpha" type="matrix" values="0 0 0 0 0 0 0 0 0 0 0 0 0 0 0 0 0 0 127 0" result="hardAlpha"/>
<feOffset dy="0.722222"/>
<feGaussianBlur stdDeviation="0.361111"/>
<feComposite in2="hardAlpha" operator="arithmetic" k2="-1" k3="1"/>
<feColorMatrix type="matrix" values="0 0 0 0 0.508286 0 0 0 0 0.694443 0 0 0 0 0.72829 0 0 0 1 0"/>
<feBlend mode="normal" in2="shape" result="effect1_innerShadow_114_7600"/>
</filter>
<filter id="filter1_d_114_7600" x="40.77" y="36.725" width="3.43077" height="3.43077" filterUnits="userSpaceOnUse" color-interpolation-filters="sRGB">
<feFlood flood-opacity="0" result="BackgroundImageFix"/>
<feColorMatrix in="SourceAlpha" type="matrix" values="0 0 0 0 0 0 0 0 0 0 0 0 0 0 0 0 0 0 127 0" result="hardAlpha"/>
<feOffset/>
<feGaussianBlur stdDeviation="0.361111"/>
<feColorMatrix type="matrix" values="0 0 0 0 0.705882 0 0 0 0 0.823529 0 0 0 0 0.831373 0 0 0 1 0"/>
<feBlend mode="normal" in2="BackgroundImageFix" result="effect1_dropShadow_114_7600"/>
<feBlend mode="normal" in="SourceGraphic" in2="effect1_dropShadow_114_7600" result="shape"/>
</filter>
<filter id="filter2_d_114_7600" x="31.6332" y="38.7104" width="2.63585" height="2.63585" filterUnits="userSpaceOnUse" color-interpolation-filters="sRGB">
<feFlood flood-opacity="0" result="BackgroundImageFix"/>
<feColorMatrix in="SourceAlpha" type="matrix" values="0 0 0 0 0 0 0 0 0 0 0 0 0 0 0 0 0 0 127 0" result="hardAlpha"/>
<feOffset/>
<feGaussianBlur stdDeviation="0.361111"/>
<feColorMatrix type="matrix" values="0 0 0 0 0.705882 0 0 0 0 0.823529 0 0 0 0 0.831373 0 0 0 1 0"/>
<feBlend mode="normal" in2="BackgroundImageFix" result="effect1_dropShadow_114_7600"/>
<feBlend mode="normal" in="SourceGraphic" in2="effect1_dropShadow_114_7600" result="shape"/>
</filter>
<filter id="filter3_d_114_7600" x="35.2084" y="43.478" width="2.63585" height="2.63585" filterUnits="userSpaceOnUse" color-interpolation-filters="sRGB">
<feFlood flood-opacity="0" result="BackgroundImageFix"/>
<feColorMatrix in="SourceAlpha" type="matrix" values="0 0 0 0 0 0 0 0 0 0 0 0 0 0 0 0 0 0 127 0" result="hardAlpha"/>
<feOffset/>
<feGaussianBlur stdDeviation="0.361111"/>
<feColorMatrix type="matrix" values="0 0 0 0 0.705882 0 0 0 0 0.823529 0 0 0 0 0.831373 0 0 0 1 0"/>
<feBlend mode="normal" in2="BackgroundImageFix" result="effect1_dropShadow_114_7600"/>
<feBlend mode="normal" in="SourceGraphic" in2="effect1_dropShadow_114_7600" result="shape"/>
</filter>
<linearGradient id="paint0_linear_114_7600" x1="7.33105" y1="7.33105" x2="7.33105" y2="45.7294" gradientUnits="userSpaceOnUse">
<stop stop-color="#F0F1F3"/>
<stop offset="1" stop-color="#C0DCDC"/>
</linearGradient>
<linearGradient id="paint1_linear_114_7600" x1="7.33105" y1="7.33105" x2="7.33105" y2="45.7294" gradientUnits="userSpaceOnUse">
<stop stop-color="#FDDA9D"/>
<stop offset="1" stop-color="#EFB35E"/>
</linearGradient>
<linearGradient id="paint2_linear_114_7600" x1="6.33677" y1="5.05566" x2="6.33677" y2="44.3812" gradientUnits="userSpaceOnUse">
<stop stop-color="#AFD4D6"/>
<stop offset="1" stop-color="#B9D9DB"/>
</linearGradient>
<linearGradient id="paint3_linear_114_7600" x1="33.6416" y1="36.7461" x2="33.6416" y2="44.1056" gradientUnits="userSpaceOnUse">
<stop stop-color="#B7D6D8"/>
<stop offset="1" stop-color="#A7BCC1"/>
</linearGradient>
</defs>
</svg>
