<svg width="52" height="52" viewBox="0 0 52 52" fill="none" xmlns="http://www.w3.org/2000/svg">
<path d="M26.001 7.33105C36.3116 7.33131 44.6699 15.6903 44.6699 26.001C44.6698 29.9996 43.4111 33.7035 41.2705 36.7412L42.8848 37.9141C43.2841 38.2042 43.4512 38.719 43.2988 39.1885L41.4297 44.9414C41.2771 45.411 40.8395 45.7294 40.3457 45.7295H34.2969C33.8031 45.7295 33.3655 45.411 33.2129 44.9414L32.7188 43.4229C30.6341 44.2273 28.3693 44.6699 26.001 44.6699C15.6903 44.6699 7.33131 36.3116 7.33105 26.001C7.33105 15.6901 15.6901 7.33105 26.001 7.33105ZM26 10.1113C17.2248 10.1113 10.1113 17.2248 10.1113 26C10.1113 34.7752 17.2248 41.8887 26 41.8887C28.0691 41.8887 30.0456 41.4929 31.8584 40.7734L31.3438 39.1885C31.1914 38.7189 31.3584 38.2042 31.7578 37.9141L36.6514 34.3594C37.0509 34.0691 37.5917 34.0691 37.9912 34.3594L39.0195 35.1064C40.8267 32.5275 41.8887 29.3882 41.8887 26C41.8887 17.2248 34.7752 10.1113 26 10.1113Z" fill="url(#paint0_linear_114_7683)"/>
<mask id="mask0_114_7683" style="mask-type:alpha" maskUnits="userSpaceOnUse" x="7" y="7" width="38" height="39">
<path d="M26.001 7.33105C36.3116 7.33131 44.6699 15.6903 44.6699 26.001C44.6698 29.9996 43.4111 33.7035 41.2705 36.7412L42.8848 37.9141C43.2841 38.2042 43.4512 38.719 43.2988 39.1885L41.4297 44.9414C41.2771 45.411 40.8395 45.7294 40.3457 45.7295H34.2969C33.8031 45.7295 33.3655 45.411 33.2129 44.9414L32.7188 43.4229C30.6341 44.2273 28.3693 44.6699 26.001 44.6699C15.6903 44.6699 7.33131 36.3116 7.33105 26.001C7.33105 15.6901 15.6901 7.33105 26.001 7.33105ZM26 10.1113C17.2248 10.1113 10.1113 17.2248 10.1113 26C10.1113 34.7752 17.2248 41.8887 26 41.8887C28.0691 41.8887 30.0456 41.4929 31.8584 40.7734L31.3438 39.1885C31.1914 38.7189 31.3584 38.2042 31.7578 37.9141L36.6514 34.3594C37.0509 34.0691 37.5917 34.0691 37.9912 34.3594L39.0195 35.1064C40.8267 32.5275 41.8887 29.3882 41.8887 26C41.8887 17.2248 34.7752 10.1113 26 10.1113Z" fill="url(#paint1_linear_114_7683)"/>
</mask>
<g mask="url(#mask0_114_7683)">
<g style="mix-blend-mode:multiply" opacity="0.3">
<path d="M31.7773 48.3887H20.2227L26 26.7227L31.7773 48.3887ZM14.7646 46.1279L6.59375 37.957L26 26.7227L14.7646 46.1279ZM26 26.7227L4.33301 32.5V20.9443L26 26.7227ZM47.667 32.5L26 26.7227L47.667 20.9443V32.5ZM26 26.7227L20.2227 5.05566H31.7773L26 26.7227ZM45.4062 15.4873L26 26.7227L37.2354 7.31641L45.4062 15.4873ZM26 26.7217L6.59375 15.4863L14.7646 7.31543L26 26.7217Z" fill="#FFD640"/>
</g>
</g>
<path opacity="0.2" d="M11.9678 34.2728C14.8017 39.0691 20.0248 42.2861 25.9993 42.2861C26.9659 42.2861 27.9129 42.2019 28.8333 42.0404" stroke="#F68A2D" stroke-width="0.794445" stroke-linecap="round" stroke-linejoin="round"/>
<path opacity="0.3" d="M17.6426 39.9812C20.0858 41.4448 22.9446 42.2861 25.9999 42.2861" stroke="white" stroke-width="0.794445" stroke-linecap="round" stroke-linejoin="round"/>
<path opacity="0.2" d="M11.082 19.4572C13.6016 13.7204 19.3332 9.71387 26.0006 9.71387C32.6679 9.71387 38.3995 13.7204 40.9191 19.4572" stroke="#DA731B" stroke-width="0.794445" stroke-linecap="round" stroke-linejoin="round"/>
<path opacity="0.2" d="M17.6426 12.0188C20.0858 10.5552 22.9446 9.71387 25.9999 9.71387C29.0552 9.71387 31.9139 10.5552 34.3572 12.0188" stroke="#DA731B" stroke-width="0.794445" stroke-linecap="round" stroke-linejoin="round"/>
<path opacity="0.4" d="M38.8627 35.419C38.52 35.1659 37.8346 34.6595 37.8346 34.6595C37.4981 34.4039 37.0425 34.4039 36.7061 34.6595L31.958 38.2414" stroke="white" stroke-width="0.794445" stroke-linecap="round" stroke-linejoin="round"/>
<path opacity="0.4" d="M37.8346 34.6595C37.4981 34.4039 37.0425 34.4039 36.7061 34.6595L31.958 38.2414" stroke="white" stroke-width="0.794445" stroke-linecap="round" stroke-linejoin="round"/>
<path d="M36.7067 34.6592L35.5293 35.554" stroke="white" stroke-width="0.794445" stroke-linecap="round"/>
<path opacity="0.5" d="M35.1367 45.3119H39.7048" stroke="#DA731B" stroke-width="0.794445" stroke-linecap="round" stroke-linejoin="round"/>
<path opacity="0.5" d="M11.5283 37.0322C14.8824 41.4354 20.1478 44.2722 26.0683 44.2722C27.0875 44.2722 28.0873 44.1882 29.0613 44.0265" stroke="#DA731B" stroke-width="0.794445" stroke-linecap="round" stroke-linejoin="round"/>
<path opacity="0.4" d="M44.272 25.9998C44.272 15.9083 36.0912 7.72754 25.9998 7.72754C15.9083 7.72754 7.72754 15.9083 7.72754 25.9998" stroke="white" stroke-width="0.794445" stroke-linecap="round" stroke-linejoin="round"/>
<g filter="url(#filter0_i_114_7683)">
<path fill-rule="evenodd" clip-rule="evenodd" d="M37.3214 42.6337L35.7265 43.2008C35.453 43.2981 35.167 43.0904 35.175 42.8001L35.2216 41.1081L34.1894 39.7666C34.0123 39.5365 34.1215 39.2004 34.4 39.1183L36.0236 38.6397L36.9805 37.2434C37.1446 37.0039 37.4981 37.0039 37.6622 37.2434L38.6191 38.6397L40.2427 39.1183C40.5212 39.2004 40.6304 39.5365 40.4533 39.7666L39.4211 41.1081L39.4677 42.8001C39.4757 43.0904 39.1897 43.2981 38.9162 43.2008L37.3214 42.6337Z" fill="url(#paint2_linear_114_7683)"/>
</g>
<path fill-rule="evenodd" clip-rule="evenodd" d="M37.3214 42.6337L35.7265 43.2008C35.453 43.2981 35.167 43.0904 35.175 42.8001L35.2216 41.1081L34.1894 39.7666C34.0123 39.5365 34.1215 39.2004 34.4 39.1183L36.0236 38.6397L36.9805 37.2434C37.1446 37.0039 37.4981 37.0039 37.6622 37.2434L38.6191 38.6397L40.2427 39.1183C40.5212 39.2004 40.6304 39.5365 40.4533 39.7666L39.4211 41.1081L39.4677 42.8001C39.4757 43.0904 39.1897 43.2981 38.9162 43.2008L37.3214 42.6337Z" stroke="#FFE9D1" stroke-width="0.794445" stroke-linecap="round" stroke-linejoin="round"/>
<defs>
<filter id="filter0_i_114_7683" x="33.7061" y="36.667" width="7.23047" height="7.67828" filterUnits="userSpaceOnUse" color-interpolation-filters="sRGB">
<feFlood flood-opacity="0" result="BackgroundImageFix"/>
<feBlend mode="normal" in="SourceGraphic" in2="BackgroundImageFix" result="shape"/>
<feColorMatrix in="SourceAlpha" type="matrix" values="0 0 0 0 0 0 0 0 0 0 0 0 0 0 0 0 0 0 127 0" result="hardAlpha"/>
<feOffset dy="0.722222"/>
<feGaussianBlur stdDeviation="0.361111"/>
<feComposite in2="hardAlpha" operator="arithmetic" k2="-1" k3="1"/>
<feColorMatrix type="matrix" values="0 0 0 0 0.921569 0 0 0 0 0.447059 0 0 0 0 0.105882 0 0 0 1 0"/>
<feBlend mode="normal" in2="shape" result="effect1_innerShadow_114_7683"/>
</filter>
<linearGradient id="paint0_linear_114_7683" x1="7.33105" y1="7.33105" x2="7.33105" y2="45.7294" gradientUnits="userSpaceOnUse">
<stop stop-color="#FDDA9D"/>
<stop offset="1" stop-color="#EFB35E"/>
</linearGradient>
<linearGradient id="paint1_linear_114_7683" x1="7.33105" y1="7.33105" x2="7.33105" y2="45.7294" gradientUnits="userSpaceOnUse">
<stop stop-color="#FDDA9D"/>
<stop offset="1" stop-color="#EFB35E"/>
</linearGradient>
<linearGradient id="paint2_linear_114_7683" x1="33.6416" y1="36.7461" x2="33.6416" y2="44.1056" gradientUnits="userSpaceOnUse">
<stop stop-color="#FD9B41"/>
<stop offset="1" stop-color="#F48224"/>
</linearGradient>
</defs>
</svg>
