<svg width="20" height="20" viewBox="0 0 20 20" fill="none" xmlns="http://www.w3.org/2000/svg">
<path d="M17.1803 14.375L16.8597 15.7656C16.7941 16.0494 16.5416 16.25 16.2503 16.25H3.75031C3.45906 16.25 3.20656 16.0494 3.14094 15.7656L2.82031 14.375H17.1803Z" fill="#F2BB6C"/>
<path d="M18.7347 7.64023L17.4691 13.1246H2.53158L1.26595 7.64023C1.21033 7.39835 1.30283 7.14585 1.5022 6.99773C1.7022 6.8496 1.97033 6.83398 2.18533 6.9571L6.05345 9.16773L9.4797 4.02835C9.59158 3.86085 9.77658 3.7571 9.9772 3.7496C10.1797 3.74085 10.3703 3.8321 10.4935 3.99085L14.5116 9.1571L17.7785 6.9796C17.9916 6.83835 18.2697 6.8396 18.4803 6.98523C18.6916 7.13085 18.7916 7.39085 18.7347 7.64023Z" fill="#F2BB6C"/>
</svg>
